Coordinates
version=1
nRows=7
nColumns=46
inDegrees=yes

Units are S.I. units (second, meters, Newtons, ...)
Angles are in degrees.

endheader
time	pelvis_tilt	pelvis_list	pelvis_rotation	pelvis_tx	pelvis_ty	pelvis_tz	bb_angle	bb_tx	bb_ty	bb_tz	hip_flexion_r	hip_adduction_r	hip_rotation_r	knee_angle_r	knee_angle_r_beta	ankle_angle_r	subtalar_angle_r	mtp_angle_r	crank_angle_r	hip_flexion_l	hip_adduction_l	hip_rotation_l	knee_angle_l	knee_angle_l_beta	ankle_angle_l	subtalar_angle_l	mtp_angle_l	crank_angle_l	lumbar_extension	lumbar_bending	lumbar_rotation	arm_flex_r	arm_add_r	arm_rot_r	elbow_flex_r	pro_sup_r	wrist_flex_r	wrist_dev_r	arm_flex_l	arm_add_l	arm_rot_l	elbow_flex_l	pro_sup_l	wrist_flex_l	wrist_dev_l
      0.00500000	    -17.42018494	      3.43509618	      2.58845945	      0.12370971	      1.07035450	     -0.25452051	      0.00000000	      0.50000000	      0.00000000	      0.25000000	     51.17685911	     -9.68039363	      0.07362086	     71.75612988	      1.25238072	     15.02977350	     -5.40506504	      0.00000000	      0.00000000	     85.80434156	     -1.29122671	     -2.17797875	     90.07786375	      1.57215531	     22.39238862	     -7.72356656	      0.00000000	      0.00000000	    -47.13220345	     -0.92249537	     -3.87795952	     89.57206863	     -5.01412589	     54.91656498	     15.83673090	     22.98325685	      0.00000000	      0.00000000	     89.66011967	     -1.36225572	     56.21992149	     15.06201030	     21.47417955	      0.00000000	      0.00000000
      0.01000000	    -17.40529090	      3.42358168	      2.58151607	      0.12372237	      1.07042940	     -0.25451737	      0.00000000	      0.50000000	      0.00000000	      0.25000000	     51.15364634	     -9.66250545	      0.07101742	     71.74329711	      1.25215675	     15.03567447	     -5.41655371	      0.00000000	      0.00000000	     85.78004600	     -1.30221860	     -2.18128704	     90.06833783	      1.57198905	     22.39215191	     -7.62408816	      0.00000000	      0.00000000	    -47.19340337	     -0.91006979	     -3.87337569	     89.56235398	     -4.68312725	     52.32665496	     15.79493049	     24.06049162	      0.00000000	      0.00000000	     89.65210800	     -1.08613808	     53.49018981	     15.12882126	     22.54135006	      0.00000000	      0.00000000
      0.01500000	    -17.39211261	      3.43317817	      2.56119148	      0.12368943	      1.07044861	     -0.25436411	      0.00000000	      0.50000000	      0.00000000	      0.25000000	     51.15620593	     -9.63222606	      0.10367550	     71.76288588	      1.25249864	     15.00235380	     -5.44833261	      0.00000000	      0.00000000	     85.76153702	     -1.33454840	     -2.18022170	     90.05296551	      1.57172075	     22.39095655	     -7.54125613	      0.00000000	      0.00000000	    -47.16587139	     -0.95366180	     -3.84936391	     89.57405831	     -5.02707067	     54.74643011	     15.58043820	     24.63096305	      0.00000000	      0.00000000	     89.66295210	     -1.37469252	     56.22626965	     14.86627547	     22.64851868	      0.00000000	      0.00000000
      0.02000000	    -17.24241286	      3.60714884	      2.45101713	      0.12395515	      1.07075782	     -0.25433966	      0.00000000	      0.50000000	      0.00000000	      0.25000000	     51.03312507	     -9.72128226	      0.26619846	     71.79236126	      1.25301308	     15.04790787	     -5.36783827	      0.00000000	      0.00000000	     85.54597761	     -1.46283088	     -2.42776618	     89.95587801	      1.57002625	     22.30321381	     -7.53981241	      0.00000000	      0.00000000	    -47.33732988	     -1.14958648	     -3.89234412	     89.57376795	     -5.01899343	     54.36664153	     15.34705085	     26.12319543	      0.00000000	      0.00000000	     89.66251525	     -1.44775393	     55.48921366	     15.07363163	     23.78985633	      0.00000000	      0.00000000
      0.02500000	    -17.26317014	      3.55025358	      2.50178115	      0.12381890	      1.07079856	     -0.25431127	      0.00000000	      0.50000000	      0.00000000	      0.25000000	     51.03622509	     -9.69068076	      0.19643093	     71.76371354	      1.25251308	     14.97528321	     -5.47577804	      0.00000000	      0.00000000	     85.53121902	     -1.40993981	     -2.34806848	     89.90834781	      1.56919669	     22.35399822	     -7.50462445	      0.00000000	      0.00000000	    -47.35995908	     -1.08246967	     -3.84880770	     89.56800920	     -4.89059937	     52.70972266	     15.46859614	     26.70465337	      0.00000000	      0.00000000	     89.65902147	     -1.18303929	     53.75684145	     15.10662638	     24.37168549	      0.00000000	      0.00000000
      0.03000000	    -17.23661625	      3.50406929	      2.53471707	      0.12369837	      1.07072981	     -0.25439710	      0.00000000	      0.50000000	      0.00000000	      0.25000000	     51.01811681	     -9.68473781	      0.15466061	     71.79214615	      1.25300933	     14.97373496	     -5.45606086	      0.00000000	      0.00000000	     85.55451738	     -1.29069049	     -2.19970457	     89.93439545	      1.56965131	     22.29085975	     -7.61048807	      0.00000000	      0.00000000	    -47.45051414	     -1.07401237	     -3.84417277	     89.58398235	     -5.22478035	     53.98071691	     15.86508968	     25.60274575	      0.00000000	      0.00000000	     89.67374377	     -1.32049011	     54.96261250	     15.41187875	     23.15044141	      0.00000000	      0.00000000
      0.03500000	    -17.17975578	      3.54414043	      2.48884183	      0.12377623	      1.07081823	     -0.25436096	      0.00000000	      0.50000000	      0.00000000	      0.25000000	     50.97157588	     -9.68857066	      0.20095662	     71.81217104	      1.25335883	     14.99399986	     -5.44226750	      0.00000000	      0.00000000	     85.47878472	     -1.31916128	     -2.23922195	     89.93832701	      1.56971993	     22.28928908	     -7.62168666	      0.00000000	      0.00000000	    -47.51874007	     -1.13117410	     -3.84978077	     89.58198997	     -5.17944325	     53.85434722	     16.13073993	     24.08381169	      0.00000000	      0.00000000	     89.67382385	     -1.32249542	     54.85992557	     15.67885131	     21.87946503	      0.00000000	      0.00000000
